# xmcd
#
# Track frame offsets:
#	150
#	12943
#	28710
#	40943
#	51828
#	64475
#	81228
#	95535
#	110128
#	122915
#
# Disc length: 1828 seconds
#
# Revision: 0
# Processed by: cddbd v1.5.1PL0 Copyright (c) Steve Scherf et al.
# Submitted via: dBpowerAMP V4.0
#
DISCID=8b07220a
DTITLE=Conway Twitty and Loretta Lynn   - Two's A Party
DYEAR=1981
DGENRE=Country
TTITLE0=Two's A Party
TTITLE1=The State Of Our Union
TTITLE2=Lovin' What Your Lovin' Does To Me
TTITLE3=I'd Rather Have What We Had
TTITLE4=Oh Honey, Oh Babe
TTITLE5=Right In The Palm Of Your Hand
TTITLE6=Silent Partner
TTITLE7=I Still Believe In Waltzes
TTITLE8=We've Been Strong Long Enough
TTITLE9=If I Ever Had To Say Goodbye To You
EXTD=
EXTT0=
EXTT1=
EXTT2=
EXTT3=
EXTT4=
EXTT5=
EXTT6=
EXTT7=
EXTT8=
EXTT9=
PLAYORDER=
